# xmcd
#
# Track frame offsets: 
#        150
#        15873
#        30814
#        46171
#        60907
#        77602
#        94086
#        108144
#        117549
#        131336
#        147100
#        161798
#        182576
#        205560
#        222004
#        234771
#        250166
#        265707
#        280131
#        296546
#
# Disc length: 4179 seconds
#
# Revision: 0
# Processed by: cddbd v1.5.2PL0 Copyright (c) Steve Scherf et al.
# Submitted via: ExactAudioCopy v0.95b4
#
DISCID=f5105114
DTITLE=Steve Sledge - Steve Sledge
DYEAR=2007
DGENRE=Country
TTITLE0=No Hurry
TTITLE1=Giddyup Girl
TTITLE2=Locked And Loaded
TTITLE3=My Song Won´t Play
TTITLE4=You Can´t Touch Her There
TTITLE5=Two Tequilas
TTITLE6=Dr. Honky Tonk
TTITLE7=Hidin´ Up My Sleeve
TTITLE8=Fix It In The Mix
TTITLE9=Bottoms Up
TTITLE10=Zero To Sexy
TTITLE11=Break Me Off Some Of That
TTITLE12=Dark Of The Night
TTITLE13=Blue Collar Steel
TTITLE14=Texas-Tennesee
TTITLE15=Closer To Forever
TTITLE16=Country Board Junkie 
TTITLE17=Losin´ U
TTITLE18=Pumpin´ Ethyl
TTITLE19=Tuna Melt Boogie
EXTD=
EXTT0=
EXTT1=
EXTT2=
EXTT3=
EXTT4=
EXTT5=
EXTT6=
EXTT7=
EXTT8=
EXTT9=
EXTT10=
EXTT11=
EXTT12=
EXTT13=
EXTT14=
EXTT15=
EXTT16=
EXTT17=
EXTT18=
EXTT19=
PLAYORDER=
